# xmcd
#
# Track frame offsets:
#	150
#	13377
#	28848
#	46905
#	59106
#	75780
#	88220
#	99877
#	111748
#	130906
#	145857
#	158563
#	174237
#
# Disc length: 2463 seconds
# Revision: 1
# Processed by: cddbd v1.5.2PL0 Copyright (c) Steve Scherf et al.
# Submitted via: dBpowerAMP V12.0
#
DISCID=a9099d0d
DTITLE=Balsam Range - Papertown
DYEAR=2012
DGENRE=Bluegrass
TTITLE0=Other Side Of The Mountain
TTITLE1=Any Old Road (Will Take You There)
TTITLE2=Wide River To Cross
TTITLE3=Day In The Life Of A Railroad Spike
TTITLE4=Better Days
TTITLE5=Born Ramblin' Man
TTITLE6=Row By Row
TTITLE7=Building The Fire
TTITLE8=One Way Out
TTITLE9=I Ain't Leavin'
TTITLE10=I Could Do You Some Good
TTITLE11=Papertown
TTITLE12=The Streamlined Cannonball
EXTD=
EXTT0=
EXTT1=
EXTT2=
EXTT3=
EXTT4=
EXTT5=
EXTT6=
EXTT7=
EXTT8=
EXTT9=
EXTT10=
EXTT11=
EXTT12=
PLAYORDER=
